<?xml version="1.0" encoding="UTF-8"?>
<!DOCTYPE svg PUBLIC "-//W3C//DTD SVG 1.1//EN" "http://www.w3.org/Graphics/SVG/1.1/DTD/svg11.dtd">
<svg xmlns="http://www.w3.org/2000/svg" version="1.1" width="732px" height="640px"
    style="shape-rendering:geometricPrecision; text-rendering:geometricPrecision; image-rendering:optimizeQuality; fill-rule:evenodd; clip-rule:evenodd"
    xmlns:xlink="http://www.w3.org/1999/xlink">
    <g>
        <path style="opacity:1" fill="#009dff"
            d="M 389.5,21.5 C 400.573,29.6983 411.24,38.3649 421.5,47.5C 421.062,47.4346 420.728,47.6012 420.5,48C 421.244,49.0386 422.244,49.5386 423.5,49.5C 444.752,67.3369 458.919,89.6702 466,116.5C 466.981,126.144 467.648,135.81 468,145.5C 468.167,184.667 468.333,223.833 468.5,263C 468.616,308.179 468.116,353.346 467,398.5C 464.759,419.647 456.092,437.647 441,452.5C 431.796,460.849 421.963,468.349 411.5,475C 404.444,479.01 397.111,482.01 389.5,484C 388.773,482.601 388.273,481.101 388,479.5C 387.832,404.597 387.332,329.763 386.5,255C 387.375,179.319 388.042,103.486 388.5,27.5C 388.205,25.2646 388.539,23.2646 389.5,21.5 Z" />
    </g>
    <g>
        <path style="opacity:1" fill="#929da9"
            d="M 389.5,21.5 C 388.539,23.2646 388.205,25.2646 388.5,27.5C 387.203,25.3066 387.203,22.9732 388.5,20.5C 389.107,20.6236 389.44,20.9569 389.5,21.5 Z" />
    </g>
    <g>
        <path style="opacity:1" fill="#aeb8c3"
            d="M 421.5,47.5 C 422.5,47.8333 423.167,48.5 423.5,49.5C 422.244,49.5386 421.244,49.0386 420.5,48C 420.728,47.6012 421.062,47.4346 421.5,47.5 Z" />
    </g>
    <g>
        <path style="opacity:1" fill="#a2a9b2"
            d="M 209.5,138.5 C 254.335,137.169 299.335,137.169 344.5,138.5C 344.872,141.383 344.872,144.383 344.5,147.5C 343.806,144.579 342.973,141.579 342,138.5C 298.755,138.591 254.588,138.591 209.5,138.5 Z" />
    </g>
    <g>
        <path style="opacity:1" fill="#ff8c00"
            d="M 207.5,138.5 C 208.167,138.5 208.833,138.5 209.5,138.5C 254.588,138.591 298.755,138.591 342,138.5C 342.973,141.579 343.806,144.579 344.5,147.5C 345.753,243.319 346.42,338.152 346.5,432C 345.673,451.76 345.173,471.594 345,491.5C 344.343,499.468 341.509,506.468 336.5,512.5C 335.094,512.973 334.427,513.973 334.5,515.5C 333.094,515.973 332.427,516.973 332.5,518.5C 331.094,518.973 330.427,519.973 330.5,521.5C 330.5,522.167 330.167,522.5 329.5,522.5C 327.738,523.262 326.738,524.596 326.5,526.5C 326.5,527.167 326.167,527.5 325.5,527.5C 324.094,527.973 323.427,528.973 323.5,530.5C 323.167,531.5 322.5,532.167 321.5,532.5C 320.094,532.973 319.427,533.973 319.5,535.5C 317.833,537.833 315.833,539.833 313.5,541.5C 312.094,541.973 311.427,542.973 311.5,544.5C 301.167,556.833 289.833,568.167 277.5,578.5C 275.973,578.427 274.973,579.094 274.5,580.5C 273.421,582.543 271.754,583.876 269.5,584.5C 268.075,582.969 267.409,583.302 267.5,585.5C 267.027,586.906 266.027,587.573 264.5,587.5C 262.973,587.427 261.973,588.094 261.5,589.5C 259.819,591.008 257.819,592.008 255.5,592.5C 253.973,592.427 252.973,593.094 252.5,594.5C 249.449,596.352 246.116,597.686 242.5,598.5C 240.063,598.756 237.729,599.423 235.5,600.5C 234.056,599.019 233.389,599.352 233.5,601.5C 232.791,602.404 231.791,602.737 230.5,602.5C 221.554,603.968 212.554,604.968 203.5,605.5C 190.714,605.894 178.047,604.894 165.5,602.5C 163.901,602.768 162.568,602.434 161.5,601.5C 158.495,599.723 155.162,598.723 151.5,598.5C 140.571,594.705 130.571,589.372 121.5,582.5C 121.027,581.094 120.027,580.427 118.5,580.5C 112.42,576.594 106.754,572.094 101.5,567C 97.23,563.239 93.5633,559.072 90.5,554.5C 90.1667,553.5 89.5,552.833 88.5,552.5C 87.4265,551.749 87.2599,550.749 88,549.5C 89.3333,547.5 90.6667,545.5 92,543.5C 102.734,532.271 113.234,520.937 123.5,509.5C 125.262,508.738 126.262,507.404 126.5,505.5C 128.629,501.835 131.629,499.668 135.5,499C 136.381,499.708 137.047,500.542 137.5,501.5C 137.973,502.906 138.973,503.573 140.5,503.5C 145.206,507.178 149.872,510.844 154.5,514.5C 154.973,515.906 155.973,516.573 157.5,516.5C 158.659,518.25 160.326,519.25 162.5,519.5C 163.492,519.328 164.158,519.662 164.5,520.5C 165.287,522.104 166.62,522.771 168.5,522.5C 172.127,523.321 175.46,524.654 178.5,526.5C 180.438,528.163 182.772,528.829 185.5,528.5C 187.099,528.232 188.432,528.566 189.5,529.5C 193.909,530.979 198.576,531.646 203.5,531.5C 209.535,531.865 215.202,530.865 220.5,528.5C 223.551,526.648 226.884,525.314 230.5,524.5C 232.38,524.771 233.713,524.104 234.5,522.5C 236.027,522.573 237.027,521.906 237.5,520.5C 237.842,519.662 238.508,519.328 239.5,519.5C 241.674,519.25 243.341,518.25 244.5,516.5C 246.027,516.573 247.027,515.906 247.5,514.5C 249.404,514.262 250.738,513.262 251.5,511.5C 251.5,510.833 251.833,510.5 252.5,510.5C 253.5,510.167 254.167,509.5 254.5,508.5C 256.914,507.089 258.581,505.089 259.5,502.5C 259.328,501.508 259.662,500.842 260.5,500.5C 262.539,499.089 263.539,497.089 263.5,494.5C 266.218,486.407 267.718,478.074 268,469.5C 268.673,454.839 269.173,440.172 269.5,425.5C 268.795,360.975 268.295,295.975 268,230.5C 264.441,222.457 260.274,214.79 255.5,207.5C 255.573,205.973 254.906,204.973 253.5,204.5C 251.147,202.14 249.147,199.473 247.5,196.5C 247.573,194.973 246.906,193.973 245.5,193.5C 244.833,193.5 244.5,193.167 244.5,192.5C 244.573,190.973 243.906,189.973 242.5,189.5C 241.5,189.167 240.833,188.5 240.5,187.5C 240.573,185.973 239.906,184.973 238.5,184.5C 234.167,180.833 230.167,176.833 226.5,172.5C 225.738,170.738 224.404,169.738 222.5,169.5C 221.5,169.167 220.833,168.5 220.5,167.5C 220.123,165.176 219.123,164.509 217.5,165.5C 215.704,163.1 213.37,161.433 210.5,160.5C 209.738,158.738 208.404,157.738 206.5,157.5C 206.027,156.094 205.027,155.427 203.5,155.5C 202.738,153.738 201.404,152.738 199.5,152.5C 196.35,149.421 192.683,147.087 188.5,145.5C 187.365,143.787 185.698,143.12 183.5,143.5C 182.22,142.069 180.553,141.402 178.5,141.5C 188.116,140.009 197.782,139.009 207.5,138.5 Z" />
    </g>
    <g>
        <path style="opacity:1" fill="#ff8c00"
            d="M 207.5,138.5 C 197.782,139.009 188.116,140.009 178.5,141.5C 177.957,141.44 177.624,141.107 177.5,140.5C 179.423,139.692 181.423,139.192 183.5,139C 191.493,138.5 199.493,138.334 207.5,138.5 Z" />
    </g>
    <g>
        <path style="opacity:1" fill="#ff8c00"
            d="M 178.5,141.5 C 180.553,141.402 182.22,142.069 183.5,143.5C 181.447,143.598 179.78,142.931 178.5,141.5 Z" />
    </g>
    <g>
        <path style="opacity:1" fill="#a9b3bf"
            d="M 183.5,143.5 C 185.698,143.12 187.365,143.787 188.5,145.5C 186.597,145.204 184.93,144.537 183.5,143.5 Z" />
    </g>
    <g>
        <path style="opacity:1" fill="#9fa9b3"
            d="M 188.5,145.5 C 192.683,147.087 196.35,149.421 199.5,152.5C 195.317,150.913 191.65,148.579 188.5,145.5 Z" />
    </g>
    <g>
        <path style="opacity:1" fill="#b0b4b8"
            d="M 199.5,152.5 C 201.404,152.738 202.738,153.738 203.5,155.5C 201.596,155.262 200.262,154.262 199.5,152.5 Z" />
    </g>
    <g>
        <path style="opacity:1" fill="#a4afba"
            d="M 203.5,155.5 C 205.027,155.427 206.027,156.094 206.5,157.5C 204.973,157.573 203.973,156.906 203.5,155.5 Z" />
    </g>
    <g>
        <path style="opacity:1" fill="#ff8c00"
            d="M 206.5,157.5 C 208.404,157.738 209.738,158.738 210.5,160.5C 208.596,160.262 207.262,159.262 206.5,157.5 Z" />
    </g>
    <g>
        <path style="opacity:1" fill="#9ca8b3"
            d="M 210.5,160.5 C 213.37,161.433 215.704,163.1 217.5,165.5C 214.63,164.567 212.296,162.9 210.5,160.5 Z" />
    </g>
    <g>
        <path style="opacity:1" fill="#a8b3be"
            d="M 220.5,167.5 C 218.973,167.573 217.973,166.906 217.5,165.5C 219.123,164.509 220.123,165.176 220.5,167.5 Z" />
    </g>
    <g>
        <path style="opacity:1" fill="#ff8c00"
            d="M 151.5,169.5 C 149.265,169.205 147.265,169.539 145.5,170.5C 142.91,169.872 140.577,168.705 138.5,167C 139.167,166.833 139.833,166.667 140.5,166.5C 144.213,167.778 147.88,168.778 151.5,169.5 Z" />
    </g>
    <g>
        <path style="opacity:1" fill="#ff8c00"
            d="M 151.5,169.5 C 154.067,169.721 156.401,170.388 158.5,171.5C 160.102,173.074 162.102,173.741 164.5,173.5C 166.403,173.796 168.07,174.463 169.5,175.5C 171.336,177.588 173.669,178.921 176.5,179.5C 178.34,181.669 180.674,183.002 183.5,183.5C 184.035,185.446 185.368,186.446 187.5,186.5C 187.973,187.906 188.973,188.573 190.5,188.5C 192.296,190.9 194.63,192.567 197.5,193.5C 198.167,193.5 198.5,193.833 198.5,194.5C 199.262,196.262 200.596,197.262 202.5,197.5C 203.167,197.5 203.5,197.833 203.5,198.5C 203.5,199.833 204.167,200.5 205.5,200.5C 206.167,201.833 207.167,202.833 208.5,203.5C 209.167,204.833 210.167,205.833 211.5,206.5C 213.146,209.81 215.48,212.477 218.5,214.5C 219.906,214.973 220.573,215.973 220.5,217.5C 221.219,220.073 222.219,222.573 223.5,225C 222.181,225.195 220.847,225.028 219.5,224.5C 219.027,223.094 218.027,222.427 216.5,222.5C 213.216,220.883 210.549,218.55 208.5,215.5C 208.027,214.094 207.027,213.427 205.5,213.5C 204.833,213.5 204.5,213.167 204.5,212.5C 204.5,211.167 203.833,210.5 202.5,210.5C 201.415,208.413 199.749,207.08 197.5,206.5C 196.833,206.5 196.5,206.167 196.5,205.5C 195.738,203.738 194.404,202.738 192.5,202.5C 191.833,202.5 191.5,202.167 191.5,201.5C 190.738,199.738 189.404,198.738 187.5,198.5C 186.833,198.5 186.5,198.167 186.5,197.5C 185.738,195.738 184.404,194.738 182.5,194.5C 181.738,192.738 180.404,191.738 178.5,191.5C 178.027,190.094 177.027,189.427 175.5,189.5C 173.973,189.573 172.973,188.906 172.5,187.5C 170.371,185.05 167.704,183.383 164.5,182.5C 157.99,178.747 151.656,174.747 145.5,170.5C 147.265,169.539 149.265,169.205 151.5,169.5 Z" />
    </g>
    <g>
        <path style="opacity:1" fill="#ff8c00"
            d="M 222.5,169.5 C 224.404,169.738 225.738,170.738 226.5,172.5C 224.596,172.262 223.262,171.262 222.5,169.5 Z" />
    </g>
    <g>
        <path style="opacity:1" fill="#ff8c00"
            d="M 158.5,171.5 C 160.898,171.259 162.898,171.926 164.5,173.5C 162.102,173.741 160.102,173.074 158.5,171.5 Z" />
    </g>
    <g>
        <path style="opacity:1" fill="#009dff"
            d="M 505.5,175.5 C 506.262,177.262 507.596,178.262 509.5,178.5C 562.364,223.428 588.03,280.928 586.5,351C 586.683,451.746 542.016,524.746 452.5,570C 441.472,575.35 430.138,579.85 418.5,583.5C 415.848,583.41 413.515,584.076 411.5,585.5C 379.823,594.337 347.489,597.171 314.5,594C 313.376,593.751 312.376,593.251 311.5,592.5C 319.854,583.479 328.521,574.812 337.5,566.5C 339.35,565.758 340.016,564.758 339.5,563.5C 345.511,556.127 351.511,548.794 357.5,541.5C 358.906,541.027 359.573,540.027 359.5,538.5C 360.906,538.027 361.573,537.027 361.5,535.5C 364.518,530.127 367.518,524.794 370.5,519.5C 374.733,519.461 378.733,518.795 382.5,517.5C 383.568,516.566 384.901,516.232 386.5,516.5C 390.122,516.678 393.456,516.011 396.5,514.5C 400.837,514.416 404.837,513.416 408.5,511.5C 415.505,508.714 422.505,505.714 429.5,502.5C 431.027,502.573 432.027,501.906 432.5,500.5C 433.29,499.599 434.29,498.932 435.5,498.5C 437.027,498.573 438.027,497.906 438.5,496.5C 438.5,495.833 438.833,495.5 439.5,495.5C 441.027,495.573 442.027,494.906 442.5,493.5C 444.027,493.573 445.027,492.906 445.5,491.5C 445.5,490.833 445.833,490.5 446.5,490.5C 448.027,490.573 449.027,489.906 449.5,488.5C 450.167,487.167 451.167,486.167 452.5,485.5C 457.5,482.5 461.5,478.5 464.5,473.5C 465.5,471.833 466.833,470.5 468.5,469.5C 469.906,469.027 470.573,468.027 470.5,466.5C 495.573,435.456 508.073,399.79 508,359.5C 509.109,306.472 508.442,253.472 506,200.5C 505.533,192.065 504.366,183.732 502.5,175.5C 502.735,171.959 503.735,171.959 505.5,175.5 Z" />
    </g>
    <g>
        <path style="opacity:1" fill="#8b98a3"
            d="M 505.5,175.5 C 507.404,175.738 508.738,176.738 509.5,178.5C 507.596,178.262 506.262,177.262 505.5,175.5 Z" />
    </g>
    <g>
        <path style="opacity:1" fill="#9da8b3"
            d="M 169.5,175.5 C 172.331,176.079 174.664,177.412 176.5,179.5C 173.669,178.921 171.336,177.588 169.5,175.5 Z" />
    </g>
    <g>
        <path style="opacity:1" fill="#ff8c00"
            d="M 176.5,179.5 C 179.331,180.079 181.664,181.412 183.5,183.5C 180.674,183.002 178.34,181.669 176.5,179.5 Z" />
    </g>
    <g>
        <path style="opacity:1" fill="#ff8c00"
            d="M 164.5,182.5 C 167.704,183.383 170.371,185.05 172.5,187.5C 169.296,186.617 166.629,184.95 164.5,182.5 Z" />
    </g>
    <g>
        <path style="opacity:1" fill="#ff8c00"
            d="M 183.5,183.5 C 185.404,183.738 186.738,184.738 187.5,186.5C 185.368,186.446 184.035,185.446 183.5,183.5 Z" />
    </g>
    <g>
        <path style="opacity:1" fill="#98a3ae"
            d="M 238.5,184.5 C 239.906,184.973 240.573,185.973 240.5,187.5C 239.094,187.027 238.427,186.027 238.5,184.5 Z" />
    </g>
    <g>
        <path style="opacity:1" fill="#9faab5"
            d="M 187.5,186.5 C 189.027,186.427 190.027,187.094 190.5,188.5C 188.973,188.573 187.973,187.906 187.5,186.5 Z" />
    </g>
    <g>
        <path style="opacity:1" fill="#a9b4bf"
            d="M 175.5,189.5 C 177.027,189.427 178.027,190.094 178.5,191.5C 176.973,191.573 175.973,190.906 175.5,189.5 Z" />
    </g>
    <g>
        <path style="opacity:1" fill="#9da9b4"
            d="M 190.5,188.5 C 193.37,189.433 195.704,191.1 197.5,193.5C 194.63,192.567 192.296,190.9 190.5,188.5 Z" />
    </g>
    <g>
        <path style="opacity:1" fill="#909ca7"
            d="M 242.5,189.5 C 243.906,189.973 244.573,190.973 244.5,192.5C 243.094,192.027 242.427,191.027 242.5,189.5 Z" />
    </g>
    <g>
        <path style="opacity:1" fill="#a8b3bd"
            d="M 178.5,191.5 C 180.404,191.738 181.738,192.738 182.5,194.5C 180.596,194.262 179.262,193.262 178.5,191.5 Z" />
    </g>
    <g>
        <path style="opacity:1" fill="#a8b3bd"
            d="M 182.5,194.5 C 184.404,194.738 185.738,195.738 186.5,197.5C 184.596,197.262 183.262,196.262 182.5,194.5 Z" />
    </g>
    <g>
        <path style="opacity:1" fill="#97a2ad"
            d="M 198.5,194.5 C 200.404,194.738 201.738,195.738 202.5,197.5C 200.596,197.262 199.262,196.262 198.5,194.5 Z" />
    </g>
    <g>
        <path style="opacity:1" fill="#909ca7"
            d="M 245.5,193.5 C 246.906,193.973 247.573,194.973 247.5,196.5C 246.094,196.027 245.427,195.027 245.5,193.5 Z" />
    </g>
    <g>
        <path style="opacity:1" fill="#a9b3be"
            d="M 187.5,198.5 C 189.404,198.738 190.738,199.738 191.5,201.5C 189.596,201.262 188.262,200.262 187.5,198.5 Z" />
    </g>
    <g>
        <path style="opacity:1" fill="#bfc9d3"
            d="M 203.5,198.5 C 204.5,198.833 205.167,199.5 205.5,200.5C 204.167,200.5 203.5,199.833 203.5,198.5 Z" />
    </g>
    <g>
        <path style="opacity:1" fill="#808d99"
            d="M 205.5,200.5 C 207.5,200.5 208.5,201.5 208.5,203.5C 207.167,202.833 206.167,201.833 205.5,200.5 Z" />
    </g>
    <g>
        <path style="opacity:1" fill="#afbac4"
            d="M 192.5,202.5 C 194.404,202.738 195.738,203.738 196.5,205.5C 194.596,205.262 193.262,204.262 192.5,202.5 Z" />
    </g>
    <g>
        <path style="opacity:1" fill="#808d99"
            d="M 208.5,203.5 C 210.5,203.5 211.5,204.5 211.5,206.5C 210.167,205.833 209.167,204.833 208.5,203.5 Z" />
    </g>
    <g>
        <path style="opacity:1" fill="#909ca7"
            d="M 253.5,204.5 C 254.906,204.973 255.573,205.973 255.5,207.5C 254.094,207.027 253.427,206.027 253.5,204.5 Z" />
    </g>
    <g>
        <path style="opacity:1" fill="#a9b3be"
            d="M 197.5,206.5 C 199.749,207.08 201.415,208.413 202.5,210.5C 200.251,209.92 198.585,208.587 197.5,206.5 Z" />
    </g>
    <g>
        <path style="opacity:1" fill="#b2bcc7"
            d="M 211.5,206.5 C 214.55,208.549 216.883,211.216 218.5,214.5C 215.48,212.477 213.146,209.81 211.5,206.5 Z" />
    </g>
    <g>
        <path style="opacity:1" fill="#bfc9d3"
            d="M 202.5,210.5 C 203.833,210.5 204.5,211.167 204.5,212.5C 203.5,212.167 202.833,211.5 202.5,210.5 Z" />
    </g>
    <g>
        <path style="opacity:1" fill="#a9b4be"
            d="M 205.5,213.5 C 207.027,213.427 208.027,214.094 208.5,215.5C 206.973,215.573 205.973,214.906 205.5,213.5 Z" />
    </g>
    <g>
        <path style="opacity:1" fill="#99a4af"
            d="M 220.5,217.5 C 223.207,220.247 224.873,223.58 225.5,227.5C 222.911,227.539 220.911,226.539 219.5,224.5C 220.847,225.028 222.181,225.195 223.5,225C 222.219,222.573 221.219,220.073 220.5,217.5 Z" />
    </g>
    <g>
        <path style="opacity:1" fill="#a1acb7"
            d="M 216.5,222.5 C 218.027,222.427 219.027,223.094 219.5,224.5C 217.973,224.573 216.973,223.906 216.5,222.5 Z" />
    </g>
    <g>
        <path style="opacity:1" fill="#a9b4be"
            d="M 470.5,466.5 C 470.573,468.027 469.906,469.027 468.5,469.5C 468.427,467.973 469.094,466.973 470.5,466.5 Z" />
    </g>
    <g>
        <path style="opacity:1" fill="#aab5bf"
            d="M 464.5,473.5 C 461.5,478.5 457.5,482.5 452.5,485.5C 456.167,481.167 460.167,477.167 464.5,473.5 Z" />
    </g>
    <g>
        <path style="opacity:1" fill="#b7c1cb"
            d="M 449.5,488.5 C 449.027,489.906 448.027,490.573 446.5,490.5C 446.973,489.094 447.973,488.427 449.5,488.5 Z" />
    </g>
    <g>
        <path style="opacity:1" fill="#bdc6d1"
            d="M 445.5,491.5 C 445.027,492.906 444.027,493.573 442.5,493.5C 442.973,492.094 443.973,491.427 445.5,491.5 Z" />
    </g>
    <g>
        <path style="opacity:1" fill="#b2bdc7"
            d="M 442.5,493.5 C 442.027,494.906 441.027,495.573 439.5,495.5C 439.973,494.094 440.973,493.427 442.5,493.5 Z" />
    </g>
    <g>
        <path style="opacity:1" fill="#9ca7b3"
            d="M 263.5,494.5 C 263.539,497.089 262.539,499.089 260.5,500.5C 260.992,498.181 261.992,496.181 263.5,494.5 Z" />
    </g>
    <g>
        <path style="opacity:1" fill="#a9b4be"
            d="M 438.5,496.5 C 438.027,497.906 437.027,498.573 435.5,498.5C 435.973,497.094 436.973,496.427 438.5,496.5 Z" />
    </g>
    <g>
        <path style="opacity:1" fill="#909ca7"
            d="M 137.5,501.5 C 139.027,501.427 140.027,502.094 140.5,503.5C 138.973,503.573 137.973,502.906 137.5,501.5 Z" />
    </g>
    <g>
        <path style="opacity:1" fill="#bdc6d1"
            d="M 432.5,500.5 C 432.027,501.906 431.027,502.573 429.5,502.5C 429.973,501.094 430.973,500.427 432.5,500.5 Z" />
    </g>
    <g>
        <path style="opacity:1" fill="#9ba6b2"
            d="M 259.5,502.5 C 258.581,505.089 256.914,507.089 254.5,508.5C 255.419,505.911 257.086,503.911 259.5,502.5 Z" />
    </g>
    <g>
        <path style="opacity:1" fill="#adb7c2"
            d="M 126.5,505.5 C 126.262,507.404 125.262,508.738 123.5,509.5C 123.738,507.596 124.738,506.262 126.5,505.5 Z" />
    </g>
    <g>
        <path style="opacity:1" fill="#95a1ad"
            d="M 254.5,508.5 C 254.167,509.5 253.5,510.167 252.5,510.5C 252.5,509.167 253.167,508.5 254.5,508.5 Z" />
    </g>
    <g>
        <path style="opacity:1" fill="#a6b1bb"
            d="M 251.5,511.5 C 250.738,513.262 249.404,514.262 247.5,514.5C 248.262,512.738 249.596,511.738 251.5,511.5 Z" />
    </g>
    <g>
        <path style="opacity:1" fill="#aeb9c3"
            d="M 408.5,511.5 C 404.837,513.416 400.837,514.416 396.5,514.5C 400.239,512.898 404.239,511.898 408.5,511.5 Z" />
    </g>
    <g>
        <path style="opacity:1" fill="#97a2ae"
            d="M 154.5,514.5 C 156.027,514.427 157.027,515.094 157.5,516.5C 155.973,516.573 154.973,515.906 154.5,514.5 Z" />
    </g>
    <g>
        <path style="opacity:1" fill="#a1acb7"
            d="M 336.5,512.5 C 336.573,514.027 335.906,515.027 334.5,515.5C 334.427,513.973 335.094,512.973 336.5,512.5 Z" />
    </g>
    <g>
        <path style="opacity:1" fill="#a9b4be"
            d="M 247.5,514.5 C 247.027,515.906 246.027,516.573 244.5,516.5C 244.973,515.094 245.973,514.427 247.5,514.5 Z" />
    </g>
    <g>
        <path style="opacity:1" fill="#9faab6"
            d="M 396.5,514.5 C 393.456,516.011 390.122,516.678 386.5,516.5C 389.589,515.215 392.922,514.549 396.5,514.5 Z" />
    </g>
    <g>
        <path style="opacity:1" fill="#a1abb7"
            d="M 157.5,516.5 C 159.674,516.75 161.341,517.75 162.5,519.5C 160.326,519.25 158.659,518.25 157.5,516.5 Z" />
    </g>
    <g>
        <path style="opacity:1" fill="#a2adb8"
            d="M 244.5,516.5 C 243.341,518.25 241.674,519.25 239.5,519.5C 240.659,517.75 242.326,516.75 244.5,516.5 Z" />
    </g>
    <g>
        <path style="opacity:1" fill="#8d98a4"
            d="M 334.5,515.5 C 334.573,517.027 333.906,518.027 332.5,518.5C 332.427,516.973 333.094,515.973 334.5,515.5 Z" />
    </g>
    <g>
        <path style="opacity:1" fill="#b6c0cb"
            d="M 382.5,517.5 C 378.733,518.795 374.733,519.461 370.5,519.5C 374.236,518.011 378.236,517.344 382.5,517.5 Z" />
    </g>
    <g>
        <path style="opacity:1" fill="#808d99"
            d="M 332.5,518.5 C 332.573,520.027 331.906,521.027 330.5,521.5C 330.427,519.973 331.094,518.973 332.5,518.5 Z" />
    </g>
    <g>
        <path style="opacity:1" fill="#96a2ad"
            d="M 164.5,520.5 C 166.153,520.66 167.486,521.326 168.5,522.5C 166.62,522.771 165.287,522.104 164.5,520.5 Z" />
    </g>
    <g>
        <path style="opacity:1" fill="#a9b4be"
            d="M 237.5,520.5 C 237.027,521.906 236.027,522.573 234.5,522.5C 234.973,521.094 235.973,520.427 237.5,520.5 Z" />
    </g>
    <g>
        <path style="opacity:1" fill="#bcc6d0"
            d="M 234.5,522.5 C 233.713,524.104 232.38,524.771 230.5,524.5C 231.514,523.326 232.847,522.66 234.5,522.5 Z" />
    </g>
    <g>
        <path style="opacity:1" fill="#94a0ab"
            d="M 329.5,522.5 C 329.262,524.404 328.262,525.738 326.5,526.5C 326.738,524.596 327.738,523.262 329.5,522.5 Z" />
    </g>
    <g>
        <path style="opacity:1" fill="#afb9c4"
            d="M 178.5,526.5 C 181.067,526.721 183.401,527.388 185.5,528.5C 182.772,528.829 180.438,528.163 178.5,526.5 Z" />
    </g>
    <g>
        <path style="opacity:1" fill="#808d99"
            d="M 325.5,527.5 C 325.573,529.027 324.906,530.027 323.5,530.5C 323.427,528.973 324.094,527.973 325.5,527.5 Z" />
    </g>
    <g>
        <path style="opacity:1" fill="#adb7c2"
            d="M 220.5,528.5 C 215.202,530.865 209.535,531.865 203.5,531.5C 198.576,531.646 193.909,530.979 189.5,529.5C 199.905,531.037 210.239,530.703 220.5,528.5 Z" />
    </g>
    <g>
        <path style="opacity:1" fill="#808d99"
            d="M 321.5,532.5 C 321.573,534.027 320.906,535.027 319.5,535.5C 319.427,533.973 320.094,532.973 321.5,532.5 Z" />
    </g>
    <g>
        <path style="opacity:1" fill="#b2bdc7"
            d="M 361.5,535.5 C 361.573,537.027 360.906,538.027 359.5,538.5C 359.427,536.973 360.094,535.973 361.5,535.5 Z" />
    </g>
    <g>
        <path style="opacity:1" fill="#a9b4be"
            d="M 359.5,538.5 C 359.573,540.027 358.906,541.027 357.5,541.5C 357.427,539.973 358.094,538.973 359.5,538.5 Z" />
    </g>
    <g>
        <path style="opacity:1" fill="#8895a0"
            d="M 313.5,541.5 C 313.573,543.027 312.906,544.027 311.5,544.5C 311.427,542.973 312.094,541.973 313.5,541.5 Z" />
    </g>
    <g>
        <path style="opacity:1" fill="#94a0ab"
            d="M 88.5,552.5 C 89.5,552.833 90.1667,553.5 90.5,554.5C 89.1667,554.5 88.5,553.833 88.5,552.5 Z" />
    </g>
    <g>
        <path style="opacity:1" fill="#b1bcc6"
            d="M 339.5,563.5 C 340.016,564.758 339.35,565.758 337.5,566.5C 337.427,564.973 338.094,563.973 339.5,563.5 Z" />
    </g>
    <g>
        <path style="opacity:1" fill="#808d98"
            d="M 277.5,578.5 C 277.027,579.906 276.027,580.573 274.5,580.5C 274.973,579.094 275.973,578.427 277.5,578.5 Z" />
    </g>
    <g>
        <path style="opacity:1" fill="#99a4af"
            d="M 118.5,580.5 C 120.027,580.427 121.027,581.094 121.5,582.5C 119.973,582.573 118.973,581.906 118.5,580.5 Z" />
    </g>
    <g>
        <path style="opacity:1" fill="#b4bfc8"
            d="M 269.5,584.5 C 269.158,585.338 268.492,585.672 267.5,585.5C 267.409,583.302 268.075,582.969 269.5,584.5 Z" />
    </g>
    <g>
        <path style="opacity:1" fill="#808c98"
            d="M 418.5,583.5 C 416.485,584.924 414.152,585.59 411.5,585.5C 413.515,584.076 415.848,583.41 418.5,583.5 Z" />
    </g>
    <g>
        <path style="opacity:1" fill="#76838f"
            d="M 264.5,587.5 C 264.027,588.906 263.027,589.573 261.5,589.5C 261.973,588.094 262.973,587.427 264.5,587.5 Z" />
    </g>
    <g>
        <path style="opacity:1" fill="#8996a1"
            d="M 255.5,592.5 C 255.027,593.906 254.027,594.573 252.5,594.5C 252.973,593.094 253.973,592.427 255.5,592.5 Z" />
    </g>
    <g>
        <path style="opacity:1" fill="#9da8b3"
            d="M 151.5,598.5 C 155.162,598.723 158.495,599.723 161.5,601.5C 157.838,601.277 154.505,600.277 151.5,598.5 Z" />
    </g>
    <g>
        <path style="opacity:1" fill="#8d99a4"
            d="M 242.5,598.5 C 239.916,600.472 236.916,601.472 233.5,601.5C 233.389,599.352 234.056,599.019 235.5,600.5C 237.729,599.423 240.063,598.756 242.5,598.5 Z" />
    </g>
    <g>
        <path style="opacity:1" fill="#828e9a"
            d="M 230.5,602.5 C 221.822,605.121 212.822,606.455 203.5,606.5C 203.5,606.167 203.5,605.833 203.5,605.5C 212.554,604.968 221.554,603.968 230.5,602.5 Z" />
    </g>
    <g>
        <path style="opacity:1" fill="#a3adb9"
            d="M 165.5,602.5 C 178.047,604.894 190.714,605.894 203.5,605.5C 203.5,605.833 203.5,606.167 203.5,606.5C 190.464,607.284 177.797,605.951 165.5,602.5 Z" />
    </g>
</svg>